<mxfile host="app.diagrams.net" modified="2023-05-03T16:08:25.803Z" agent="Mozilla/5.0 (Windows NT 10.0; Win64; x64) AppleWebKit/537.36 (KHTML, like Gecko) Chrome/112.0.0.0 Safari/537.36" etag="tiRqucVqqTVaC13geRK4" version="21.2.7" type="onedrive">
  <diagram name="Page-1" id="2YBvvXClWsGukQMizWep">
    <mxGraphModel grid="1" page="1" gridSize="10" guides="1" tooltips="1" connect="1" arrows="1" fold="1" pageScale="1" pageWidth="850" pageHeight="1100" math="0" shadow="0">
      <root>
        <mxCell id="0" />
        <mxCell id="1" parent="0" />
        <mxCell id="m_iCl06OlJc2akQUHsXY-3" value="&lt;font style=&quot;font-size: 9px;&quot;&gt;2. [currentTime + 24 hours &amp;lt; report.getTime()]&lt;br&gt;&amp;amp;&amp;amp; report.getBranchId == branchId :&lt;br&gt;&lt;br&gt;&lt;br&gt;&lt;/font&gt;" style="html=1;verticalAlign=bottom;endArrow=block;edgeStyle=elbowEdgeStyle;elbow=vertical;curved=0;rounded=0;" edge="1" parent="1">
          <mxGeometry x="-0.4971" y="10" width="80" relative="1" as="geometry">
            <mxPoint x="310" y="76" as="sourcePoint" />
            <mxPoint x="347" y="75" as="targetPoint" />
            <mxPoint as="offset" />
          </mxGeometry>
        </mxCell>
        <mxCell id="vbn1vjWYSr6YsiNQEqlZ-1" value="cd : UpdateReport" style="shape=umlFrame;whiteSpace=wrap;html=1;pointerEvents=0;width=211;height=19;" vertex="1" parent="1">
          <mxGeometry x="9" y="11" width="791" height="379" as="geometry" />
        </mxCell>
        <mxCell id="vbn1vjWYSr6YsiNQEqlZ-34" style="edgeStyle=none;rounded=0;orthogonalLoop=1;jettySize=auto;html=1;endArrow=none;endFill=0;entryX=0;entryY=0;entryDx=0;entryDy=0;" edge="1" parent="1" target="vbn1vjWYSr6YsiNQEqlZ-33">
          <mxGeometry relative="1" as="geometry">
            <mxPoint x="10" y="80" as="sourcePoint" />
          </mxGeometry>
        </mxCell>
        <mxCell id="vbn1vjWYSr6YsiNQEqlZ-33" value="StockManagementFacade" style="html=1;whiteSpace=wrap;" vertex="1" parent="1">
          <mxGeometry x="160" y="80" width="580" height="40" as="geometry" />
        </mxCell>
        <mxCell id="vbn1vjWYSr6YsiNQEqlZ-38" value="UpdateReport(reportId, branchId)" style="html=1;verticalAlign=bottom;endArrow=block;edgeStyle=orthogonalEdgeStyle;elbow=vertical;strokeColor=default;curved=1;shadow=0;" edge="1" parent="1">
          <mxGeometry x="-0.0857" y="7" width="80" relative="1" as="geometry">
            <mxPoint x="60" y="70" as="sourcePoint" />
            <mxPoint x="130" y="70" as="targetPoint" />
            <mxPoint as="offset" />
          </mxGeometry>
        </mxCell>
        <mxCell id="z478cym8GJyaMH4K4kqJ-1" value="&lt;u&gt;report: PeriodicReport&lt;/u&gt;" style="html=1;whiteSpace=wrap;" vertex="1" parent="1">
          <mxGeometry x="250" y="200" width="90" height="40" as="geometry" />
        </mxCell>
        <mxCell id="z478cym8GJyaMH4K4kqJ-4" value="&lt;font style=&quot;font-size: 9px;&quot;&gt;2. 1. 1. getTime()&amp;nbsp;&lt;br&gt;&lt;/font&gt;" style="html=1;verticalAlign=bottom;endArrow=block;edgeStyle=elbowEdgeStyle;elbow=vertical;curved=0;rounded=0;" edge="1" parent="1">
          <mxGeometry x="0.7242" y="47" width="80" relative="1" as="geometry">
            <mxPoint x="299" y="121.99776413690472" as="sourcePoint" />
            <mxPoint x="299" y="154.48000000000002" as="targetPoint" />
            <mxPoint as="offset" />
          </mxGeometry>
        </mxCell>
        <mxCell id="m_iCl06OlJc2akQUHsXY-2" value="" style="endArrow=none;html=1;rounded=0;entryX=0.123;entryY=-0.056;entryDx=0;entryDy=0;entryPerimeter=0;" edge="1" parent="1">
          <mxGeometry width="50" height="50" relative="1" as="geometry">
            <mxPoint x="271" y="80" as="sourcePoint" />
            <mxPoint x="231.34000000000003" y="79.75999999999999" as="targetPoint" />
            <Array as="points">
              <mxPoint x="271" y="61" />
              <mxPoint x="231" y="61" />
            </Array>
          </mxGeometry>
        </mxCell>
        <mxCell id="8G-E6wzWxCewRk8mLfWR-1" value="" style="endArrow=open;endFill=1;endSize=12;html=1;rounded=0;exitX=0.75;exitY=1;exitDx=0;exitDy=0;entryX=0.354;entryY=0.002;entryDx=0;entryDy=0;entryPerimeter=0;" edge="1" parent="1" target="z478cym8GJyaMH4K4kqJ-1">
          <mxGeometry width="160" relative="1" as="geometry">
            <mxPoint x="283" y="120" as="sourcePoint" />
            <mxPoint x="-164.1099999999999" y="392.56" as="targetPoint" />
          </mxGeometry>
        </mxCell>
        <mxCell id="3rvT58J0jZs1Ptb6OhYk-1" value="&lt;u&gt;oC: OrderController&lt;/u&gt;" style="html=1;whiteSpace=wrap;" vertex="1" parent="1">
          <mxGeometry x="180" y="330" width="100" height="40" as="geometry" />
        </mxCell>
        <mxCell id="3rvT58J0jZs1Ptb6OhYk-2" value="" style="endArrow=open;endFill=1;endSize=12;html=1;rounded=0;exitX=0.121;exitY=0.983;exitDx=0;exitDy=0;exitPerimeter=0;entryX=0.5;entryY=0;entryDx=0;entryDy=0;" edge="1" parent="1" source="vbn1vjWYSr6YsiNQEqlZ-33" target="3rvT58J0jZs1Ptb6OhYk-1">
          <mxGeometry width="160" relative="1" as="geometry">
            <mxPoint x="221" y="120" as="sourcePoint" />
            <mxPoint x="221.1300000000001" y="220" as="targetPoint" />
          </mxGeometry>
        </mxCell>
        <mxCell id="79wz5VAu5lONnOsswYYL-2" value="&lt;u&gt;reportMapper: PeriodicDataMapper&lt;/u&gt;" style="html=1;whiteSpace=wrap;" vertex="1" parent="1">
          <mxGeometry x="400" y="330" width="120" height="40" as="geometry" />
        </mxCell>
        <mxCell id="79wz5VAu5lONnOsswYYL-3" value="" style="endArrow=open;endFill=1;endSize=12;html=1;rounded=0;exitX=1;exitY=0.5;exitDx=0;exitDy=0;exitPerimeter=0;entryX=0;entryY=0.5;entryDx=0;entryDy=0;" edge="1" parent="1" source="3rvT58J0jZs1Ptb6OhYk-1" target="79wz5VAu5lONnOsswYYL-2">
          <mxGeometry width="160" relative="1" as="geometry">
            <mxPoint x="370" y="170" as="sourcePoint" />
            <mxPoint x="400" y="340" as="targetPoint" />
          </mxGeometry>
        </mxCell>
        <mxCell id="79wz5VAu5lONnOsswYYL-6" value="&lt;font style=&quot;font-size: 9px;&quot;&gt;1.chosenReport =&lt;br&gt;getPeriodicReport(reportId)&lt;br&gt;&lt;/font&gt;" style="html=1;verticalAlign=bottom;endArrow=block;edgeStyle=elbowEdgeStyle;elbow=vertical;curved=0;rounded=0;" edge="1" parent="1">
          <mxGeometry x="0.0526" y="9" width="80" relative="1" as="geometry">
            <mxPoint x="147" y="167" as="sourcePoint" />
            <mxPoint x="184" y="166" as="targetPoint" />
            <mxPoint as="offset" />
          </mxGeometry>
        </mxCell>
        <mxCell id="79wz5VAu5lONnOsswYYL-10" value="&lt;u&gt;cIDM : CatalogItem&lt;br&gt;DataMapper&lt;br&gt;&lt;/u&gt;" style="html=1;whiteSpace=wrap;" vertex="1" parent="1">
          <mxGeometry x="653" y="24" width="100" height="50" as="geometry" />
        </mxCell>
        <mxCell id="79wz5VAu5lONnOsswYYL-11" value="" style="endArrow=open;endFill=1;endSize=12;html=1;rounded=0;exitX=0.5;exitY=0;exitDx=0;exitDy=0;" edge="1" parent="1">
          <mxGeometry width="160" relative="1" as="geometry">
            <mxPoint x="553" y="80" as="sourcePoint" />
            <mxPoint x="653" y="60" as="targetPoint" />
            <Array as="points">
              <mxPoint x="553" y="60" />
              <mxPoint x="653" y="60" />
              <mxPoint x="603" y="60" />
            </Array>
          </mxGeometry>
        </mxCell>
        <mxCell id="79wz5VAu5lONnOsswYYL-12" value="&lt;font style=&quot;font-size: 9px;&quot;&gt;1. 1. find(reportId)&lt;br&gt;&lt;/font&gt;" style="html=1;verticalAlign=bottom;endArrow=block;edgeStyle=elbowEdgeStyle;elbow=vertical;curved=0;rounded=0;" edge="1" parent="1">
          <mxGeometry y="10" width="80" relative="1" as="geometry">
            <mxPoint x="320" y="342.97" as="sourcePoint" />
            <mxPoint x="360" y="342.97" as="targetPoint" />
            <mxPoint as="offset" />
            <Array as="points">
              <mxPoint x="350" y="342.97" />
            </Array>
          </mxGeometry>
        </mxCell>
        <mxCell id="79wz5VAu5lONnOsswYYL-13" value="&lt;font style=&quot;font-size: 9px;&quot;&gt;2. 2. 1. findAll()&lt;br&gt;&lt;/font&gt;" style="html=1;verticalAlign=bottom;endArrow=block;edgeStyle=elbowEdgeStyle;elbow=vertical;curved=0;rounded=0;" edge="1" parent="1">
          <mxGeometry x="0.0526" y="9" width="80" relative="1" as="geometry">
            <mxPoint x="573" y="49.5" as="sourcePoint" />
            <mxPoint x="610" y="48.5" as="targetPoint" />
            <mxPoint as="offset" />
          </mxGeometry>
        </mxCell>
        <mxCell id="79wz5VAu5lONnOsswYYL-14" value="&lt;font style=&quot;font-size: 9px;&quot;&gt;2. 1. 2. getBranchId()&amp;nbsp;&lt;br&gt;&lt;/font&gt;" style="html=1;verticalAlign=bottom;endArrow=block;edgeStyle=elbowEdgeStyle;elbow=vertical;curved=0;rounded=0;" edge="1" parent="1">
          <mxGeometry x="0.2611" y="47" width="80" relative="1" as="geometry">
            <mxPoint x="307" y="159.99776413690475" as="sourcePoint" />
            <mxPoint x="307" y="192.48" as="targetPoint" />
            <mxPoint as="offset" />
          </mxGeometry>
        </mxCell>
        <mxCell id="79wz5VAu5lONnOsswYYL-18" value="&lt;font style=&quot;font-size: 9px;&quot;&gt;2. 2. *[c in cIDM.findAll()]&lt;br&gt;&amp;nbsp;2. 2. 2. [isRequired(c, branch)] : StockManagementFacade&lt;br&gt;&lt;div style=&quot;text-align: left;&quot;&gt;&lt;span style=&quot;white-space: pre;&quot;&gt;	&lt;/span&gt;&lt;span style=&quot;white-space: pre;&quot;&gt;	&lt;/span&gt;oC.UpdateQuantities(reportId, c,&lt;/div&gt;&lt;span style=&quot;white-space: pre;&quot;&gt;	&lt;/span&gt;&lt;span style=&quot;white-space: pre;&quot;&gt;	&lt;/span&gt;c.getMinCapacity * 2 - c. GetTotalAmount(branchId))&lt;br&gt;&lt;br&gt;&lt;/font&gt;" style="html=1;verticalAlign=bottom;endArrow=block;edgeStyle=elbowEdgeStyle;elbow=vertical;curved=0;rounded=0;" edge="1" parent="1">
          <mxGeometry x="-0.0376" y="6" width="80" relative="1" as="geometry">
            <mxPoint x="505" y="215" as="sourcePoint" />
            <mxPoint x="542" y="214" as="targetPoint" />
            <mxPoint as="offset" />
          </mxGeometry>
        </mxCell>
        <mxCell id="79wz5VAu5lONnOsswYYL-19" value="" style="endArrow=none;html=1;rounded=0;entryX=0.292;entryY=1.069;entryDx=0;entryDy=0;entryPerimeter=0;exitX=0.65;exitY=0.991;exitDx=0;exitDy=0;exitPerimeter=0;" edge="1" parent="1" source="vbn1vjWYSr6YsiNQEqlZ-33">
          <mxGeometry width="50" height="50" relative="1" as="geometry">
            <mxPoint x="536.96" y="121.27999999999997" as="sourcePoint" />
            <mxPoint x="496.3599999999999" y="119.75999999999999" as="targetPoint" />
            <Array as="points">
              <mxPoint x="537" y="137" />
              <mxPoint x="517" y="137" />
              <mxPoint x="496" y="137" />
            </Array>
          </mxGeometry>
        </mxCell>
        <mxCell id="79wz5VAu5lONnOsswYYL-21" value="&lt;div style=&quot;text-align: left;&quot;&gt;&lt;span style=&quot;font-size: 9px;&quot;&gt;2. 2. 2. 1.&amp;nbsp;UpdateQuantities(reportId, c,&lt;/span&gt;&lt;/div&gt;&lt;font style=&quot;font-size: 9px;&quot;&gt;&lt;div style=&quot;text-align: left;&quot;&gt;&lt;span style=&quot;white-space: pre;&quot;&gt;	&lt;/span&gt;c.getMinCapacity * 2 -&amp;nbsp;&lt;/div&gt;&lt;div style=&quot;text-align: left;&quot;&gt;&lt;span style=&quot;white-space: pre;&quot;&gt;	&lt;/span&gt;&lt;span style=&quot;white-space: pre;&quot;&gt;	&lt;/span&gt;c. GetTotalAmount(branchId))&lt;/div&gt;&lt;/font&gt;" style="html=1;verticalAlign=bottom;endArrow=block;edgeStyle=elbowEdgeStyle;elbow=vertical;curved=0;rounded=0;" edge="1" parent="1">
          <mxGeometry x="-0.9708" y="10" width="80" relative="1" as="geometry">
            <mxPoint x="130" y="251" as="sourcePoint" />
            <mxPoint x="167" y="250" as="targetPoint" />
            <mxPoint as="offset" />
          </mxGeometry>
        </mxCell>
        <mxCell id="79wz5VAu5lONnOsswYYL-22" value="&lt;u&gt;c: CatalogItem&lt;/u&gt;" style="html=1;whiteSpace=wrap;" vertex="1" parent="1">
          <mxGeometry x="616" y="290" width="90" height="40" as="geometry" />
        </mxCell>
        <mxCell id="79wz5VAu5lONnOsswYYL-23" value="&lt;font style=&quot;font-size: 9px;&quot;&gt;2. 2. 2. 2. getMinCapacity()&amp;nbsp;&lt;br&gt;&lt;/font&gt;" style="html=1;verticalAlign=bottom;endArrow=block;edgeStyle=elbowEdgeStyle;elbow=vertical;curved=0;rounded=0;" edge="1" parent="1">
          <mxGeometry x="0.5394" y="66" width="80" relative="1" as="geometry">
            <mxPoint x="674" y="154.99776413690472" as="sourcePoint" />
            <mxPoint x="674" y="187.48000000000002" as="targetPoint" />
            <mxPoint as="offset" />
          </mxGeometry>
        </mxCell>
        <mxCell id="79wz5VAu5lONnOsswYYL-25" value="" style="endArrow=open;endFill=1;endSize=12;html=1;rounded=0;exitX=0.75;exitY=1;exitDx=0;exitDy=0;entryX=0.5;entryY=0;entryDx=0;entryDy=0;" edge="1" parent="1" target="79wz5VAu5lONnOsswYYL-22">
          <mxGeometry width="160" relative="1" as="geometry">
            <mxPoint x="661" y="120" as="sourcePoint" />
            <mxPoint x="213.8900000000001" y="392.55999999999995" as="targetPoint" />
          </mxGeometry>
        </mxCell>
        <mxCell id="79wz5VAu5lONnOsswYYL-26" value="&lt;font style=&quot;font-size: 9px;&quot;&gt;2. 2. 2. 3. getTotalAmount&lt;br&gt;(branchId)&amp;nbsp;&lt;br&gt;&lt;/font&gt;" style="html=1;verticalAlign=bottom;endArrow=block;edgeStyle=elbowEdgeStyle;elbow=vertical;curved=0;rounded=0;" edge="1" parent="1">
          <mxGeometry x="0.601" y="56" width="80" relative="1" as="geometry">
            <mxPoint x="683" y="224.2577641369047" as="sourcePoint" />
            <mxPoint x="683" y="256.74" as="targetPoint" />
            <mxPoint as="offset" />
          </mxGeometry>
        </mxCell>
      </root>
    </mxGraphModel>
  </diagram>
</mxfile>
